<?xml version="1.0" encoding="UTF-8"?>
<svg id="Logo_fondo_oscuro" xmlns="http://www.w3.org/2000/svg" version="1.1" viewBox="0 0 245.3 54">
  <!-- Generator: Adobe Illustrator 29.2.1, SVG Export Plug-In . SVG Version: 2.1.0 Build 116)  -->
  <defs>
    <style>
      .st0 {
        fill: #fac600;
      }

      .st1 {
        fill: #fff;
      }

      .st2 {
        fill: #5692ce;
      }

      .st3 {
        isolation: isolate;
      }

      .st4 {
        fill: #5bc500;
      }

      .st5 {
        fill: #ffb500;
      }

      .st6 {
        fill: #72b73d;
      }
    </style>
  </defs>
  <g>
    <path class="st1" d="M52.6,16.6v.9c0,.3-.2.6-.4.8-.2.2-.4.5-.7.7s-.6.3-1,.4h0c.3.2.7.3,1,.4s.6.3.8.6c.2.2.4.5.5.9,0,.3.2.8.2,1.2s0,1.2-.4,1.6c-.3.5-.6.8-1.1,1.1-.4.3-1,.5-1.5.6-.6.1-1.2.2-1.8.2h-2.9c-.4,0-.7,0-1-.2v-12c.2,0,.5,0,.8-.1h2.9c.6,0,1.1,0,1.7.1.5,0,1,.2,1.4.5.4.2.8.5,1,.9.3.4.4.9.4,1.5h.2-.1ZM47.5,18.9h1.1c.4-.1.8-.3,1.1-.6.3-.3.5-.6.5-1.1s0-.5-.2-.7c0-.2-.3-.3-.5-.5-.2-.1-.4-.2-.7-.2h-2.2v3.2h.9ZM48.2,24.1c.3,0,.6,0,.8-.1.3,0,.5-.2.7-.3.2-.1.4-.3.5-.5s.2-.5.2-.8,0-.7-.2-.9c-.2-.2-.3-.4-.6-.5-.2-.1-.5-.2-.8-.2h-2.2v3.3h1.6Z"/>
    <path class="st1" d="M54.6,17.8c.5-.2,1-.4,1.6-.5s1.3-.2,2-.2,1.1,0,1.5.2c.4.1.7.4,1,.6.2.3.4.6.5,1v5.7c0,.5,0,.9.3,1.3h-1.8l-.4-1.2h0c-.2.4-.6.7-1,.9-.4.3-.9.4-1.6.4s-.8,0-1.1-.2c-.3-.1-.6-.3-.8-.5s-.4-.5-.5-.8-.2-.7-.2-1,0-1,.4-1.3c.2-.4.6-.7,1-.9.4-.2,1-.4,1.6-.5.6,0,1.3-.1,2.1,0v-1.4c-.2-.3-.6-.4-1.2-.4s-.9,0-1.4.1c-.5,0-.9.2-1.2.4l-.5-1.7s-.3,0-.3,0ZM57.5,24.2c.5,0,.8-.1,1.1-.3.3-.2.5-.4.6-.7v-1.1h-1c-.3,0-.6,0-.9.2-.3,0-.5.2-.6.3-.2.2-.2.3-.2.6s0,.6.3.8c.2.2.5.3.8.3h0Z"/>
    <path class="st1" d="M68.5,25.9v-4.9c0-.7,0-1.2-.3-1.5-.2-.3-.5-.5-1-.5s-.8.1-1.1.4c-.3.2-.5.6-.6.9v5.6h-2.3v-8.7h1.8l.3,1.1h0c.3-.4.6-.7,1.1-1,.4-.3,1-.4,1.7-.4s.8,0,1.1.2c.3.1.6.3.9.6.2.3.4.6.5,1.1s.2,1,.2,1.7v5.4s-2.3,0-2.3,0Z"/>
    <path class="st1" d="M78.8,25.4c-.3.3-.8.4-1.3.6-.5.1-1,.2-1.5.2s-1.3-.1-1.8-.3c-.5-.2-.9-.5-1.2-.9-.3-.4-.5-.9-.7-1.4,0-.6-.2-1.2-.2-1.9,0-1.5.3-2.6,1-3.4s1.6-1.2,2.9-1.2,1.1,0,1.5.2c.4.1.7.2,1.1.4l-.5,1.8c-.3-.1-.5-.2-.8-.3-.3,0-.6-.1-.9-.1-.6,0-1.1.2-1.4.6s-.5,1.1-.5,2v1c0,.3.2.6.4.8.2.2.4.4.6.5.3.1.6.2.9.2s.7,0,1-.1c.3,0,.5-.2.7-.4l.5,1.7h.2Z"/>
    <path class="st1" d="M79.5,21.6c0-1.5.4-2.6,1.1-3.4s1.7-1.2,3-1.2,1.3.1,1.8.3c.5.2.9.5,1.3.9.3.4.6.9.8,1.4.2.6.3,1.2.3,1.9,0,1.5-.4,2.6-1.1,3.4s-1.7,1.2-3,1.2-1.3-.1-1.8-.3c-.5-.2-.9-.5-1.3-.9-.3-.4-.6-.9-.8-1.4-.2-.6-.3-1.2-.3-1.9ZM81.8,21.6v1.1c0,.3.2.6.3.9,0,.2.3.4.5.6.2.1.5.2.8.2.6,0,1-.2,1.3-.6s.4-1.1.4-2,0-1.4-.4-1.9-.7-.7-1.4-.7-1,.2-1.3.6-.5,1.1-.5,2l.2-.2h0Z"/>
    <path class="st1" d="M99.4,23.3h-3.7l-.9,2.7h-2.4l4.4-12.2h1.8l4.4,12.2h-2.5l-1-2.7h-.1ZM96.3,21.3h2.6l-.9-2.7-.4-1.9h0l-.4,1.9s-.9,2.7-.9,2.7Z"/>
    <path class="st1" d="M111.1,25.9c0,1.3-.3,2.2-1,2.8-.7.6-1.6.9-2.9.9s-1.5,0-2-.2c-.5-.1-.8-.2-1.1-.4l.5-1.8c.3.1.6.2.9.3.4.1.8.2,1.3.2.8,0,1.3-.2,1.6-.5.3-.3.4-.8.4-1.4v-.6h0c-.4.5-1.1.8-2.2.8s-2-.3-2.5-1-.8-1.8-.8-3.3.4-2.7,1.1-3.5,1.8-1.2,3.2-1.2,1.4,0,2,.2c.6.1,1.1.2,1.4.4v8.4h0ZM107.2,24.3c.4,0,.8,0,1-.3.2-.2.4-.5.5-.9v-3.9c-.4-.2-.8-.2-1.3-.2s-1,.2-1.4.7c-.3.4-.5,1.1-.5,2.1s0,1.5.4,1.9.7.7,1.2.7h.1Z"/>
    <path class="st1" d="M117.7,19.4c-.4-.1-.7-.2-1-.2s-.7.1-1,.3c-.3.2-.5.5-.5.8v5.6h-2.3v-8.7h1.8l.3,1.1h0c.2-.4.5-.8.8-1s.7-.3,1.2-.3.6,0,1,.2l-.3,2.1h0Z"/>
    <path class="st1" d="M119,17.8c.5-.2,1-.4,1.6-.5s1.3-.2,2-.2,1.1,0,1.5.2c.4.1.7.4,1,.6.2.3.4.6.5,1v5.7c0,.5,0,.9.3,1.3h-1.8l-.4-1.2h0c-.2.4-.6.7-1,.9-.4.3-.9.4-1.6.4s-.8,0-1.1-.2c-.3-.1-.6-.3-.8-.5-.2-.2-.4-.5-.5-.8s-.2-.7-.2-1,0-1,.4-1.3c.2-.4.6-.7,1-.9.4-.2,1-.4,1.6-.5.6,0,1.3-.1,2.1,0v-1.4c-.2-.3-.6-.4-1.2-.4s-.9,0-1.4.1c-.5,0-.9.2-1.2.4l-.5-1.7s-.3,0-.3,0ZM121.9,24.2c.5,0,.8-.1,1.1-.3.3-.2.5-.4.6-.7v-1.1h-1c-.3,0-.6,0-.9.2-.3,0-.5.2-.6.3-.2.2-.2.3-.2.6s0,.6.3.8c.2.2.5.3.8.3h-.1Z"/>
    <path class="st1" d="M132.4,19.4c-.4-.1-.7-.2-1-.2s-.7.1-1,.3c-.3.2-.5.5-.5.8v5.6h-2.3v-8.7h1.8l.3,1.1h0c.2-.4.5-.8.8-1s.7-.3,1.2-.3.6,0,1,.2l-.3,2.1h0Z"/>
    <path class="st1" d="M133.5,14.8c0-.3.1-.6.4-.9.2-.2.6-.4,1-.4s.8.1,1.1.4c.3.2.4.5.4.9s-.1.6-.4.8c-.3.2-.6.3-1.1.3s-.8-.1-1-.3-.4-.5-.4-.8ZM133.9,17.3h2.3v8.7h-2.3v-8.7Z"/>
    <path class="st1" d="M137.7,21.6c0-1.5.4-2.6,1.1-3.4.7-.8,1.7-1.2,3-1.2s1.3.1,1.8.3c.5.2.9.5,1.3.9.3.4.6.9.8,1.4.2.6.3,1.2.3,1.9,0,1.5-.4,2.6-1.1,3.4-.7.8-1.7,1.2-3,1.2s-1.3-.1-1.8-.3c-.5-.2-.9-.5-1.3-.9-.3-.4-.6-.9-.8-1.4-.2-.6-.3-1.2-.3-1.9ZM140,21.6c0,.4,0,.7.1,1.1,0,.3.2.6.3.9.1.2.3.4.5.6.2.1.5.2.8.2.6,0,1-.2,1.3-.6s.4-1.1.4-2-.1-1.4-.4-1.9c-.3-.5-.7-.7-1.4-.7s-1,.2-1.3.6-.5,1.1-.5,2l.2-.2h0Z"/>
    <path class="st1" d="M158.4,22.9v1.5c0,.5,0,1,.2,1.6h-1.6l-.3-1.1h0c-.2.4-.6.7-1,1-.4.2-.9.4-1.5.4-1.1,0-1.9-.4-2.5-1.1s-.9-1.8-.9-3.4.3-2.6,1-3.5c.7-.8,1.7-1.2,3-1.2s.7,0,.9,0,.5.1.7.2v-3.5h2.3v9.1h-.3,0ZM154.6,24.3c.4,0,.8-.1,1-.3.3-.2.4-.5.5-.9v-3.7c-.2-.1-.3-.2-.5-.3h-.8c-.6,0-1.1.2-1.4.6-.3.4-.5,1.2-.5,2.2s.1,1.3.4,1.8c.3.5.7.7,1.2.7h.1Z"/>
    <path class="st1" d="M167.3,25.2c-.3.3-.8.5-1.4.7-.6.2-1.2.3-1.9.3-1.4,0-2.4-.4-3.1-1.2-.6-.8-1-1.9-1-3.4s.4-2.7,1.1-3.4c.7-.8,1.8-1.1,3.1-1.1s.9,0,1.3.2c.4.1.8.3,1.1.6.3.3.6.6.8,1.1s.3,1,.3,1.7v.8c0,.3,0,.6-.1.9h-5.2c0,.7.2,1.3.6,1.6.3.4.9.6,1.7.6s.9,0,1.3-.2c.4-.1.7-.3.9-.4l.7,1.5-.2-.3h0ZM164,18.8c-.6,0-1,.2-1.3.5-.3.4-.5.8-.5,1.4h3.2c0-.6,0-1.1-.3-1.4-.2-.3-.6-.5-1.1-.5h0Z"/>
    <path class="st1" d="M180.7,25.5c-.4.3-.8.5-1.4.6-.6.1-1.2.2-1.8.2s-1.4-.1-2.1-.3c-.7-.2-1.2-.6-1.7-1.1s-.9-1.2-1.2-2-.4-1.8-.4-2.9.2-2.2.5-3,.8-1.5,1.3-1.9c.5-.5,1.1-.8,1.8-1.1.6-.2,1.3-.3,1.9-.3s1.3,0,1.8.1c.5,0,.9.2,1.2.3l-.5,2c-.3-.1-.6-.2-.9-.3h-1.3c-1,0-1.7.3-2.3,1s-.9,1.7-.9,3.2,0,1.2.2,1.7c.1.5.4,1,.6,1.3.3.4.6.6,1.1.9.4.2.9.3,1.5.3s1,0,1.3-.2c.4-.1.7-.2.9-.4l.5,1.9h-.1Z"/>
    <path class="st1" d="M181.4,21.6c0-1.5.4-2.6,1.1-3.4.7-.8,1.7-1.2,3-1.2s1.3.1,1.8.3c.5.2.9.5,1.3.9.3.4.6.9.8,1.4.2.6.3,1.2.3,1.9,0,1.5-.4,2.6-1.1,3.4-.7.8-1.7,1.2-3,1.2s-1.3-.1-1.8-.3c-.5-.2-.9-.5-1.3-.9-.3-.4-.6-.9-.8-1.4-.2-.6-.3-1.2-.3-1.9ZM183.8,21.6c0,.4,0,.7.1,1.1,0,.3.2.6.3.9.1.2.3.4.5.6.2.1.5.2.8.2.6,0,1-.2,1.3-.6s.4-1.1.4-2-.1-1.4-.4-1.9c-.3-.5-.7-.7-1.4-.7s-1,.2-1.3.6-.5,1.1-.5,2l.2-.2h0Z"/>
    <path class="st1" d="M193.4,23c0,.4,0,.7.2.9.1.2.3.3.5.3h.4c.1,0,.3,0,.5-.2l.2,1.8c-.2,0-.5.2-.9.3-.4,0-.8.1-1.2.1-.7,0-1.2-.2-1.5-.5s-.5-.8-.5-1.5v-10.4h2.3v9.2Z"/>
    <path class="st1" d="M195.8,21.6c0-1.5.4-2.6,1.1-3.4.7-.8,1.7-1.2,3-1.2s1.3.1,1.8.3c.5.2.9.5,1.3.9.3.4.6.9.8,1.4.2.6.3,1.2.3,1.9,0,1.5-.4,2.6-1.1,3.4-.7.8-1.7,1.2-3,1.2s-1.3-.1-1.8-.3c-.5-.2-.9-.5-1.3-.9-.3-.4-.6-.9-.8-1.4-.2-.6-.3-1.2-.3-1.9ZM198.1,21.6c0,.4,0,.7.1,1.1,0,.3.2.6.3.9.1.2.3.4.5.6.2.1.5.2.8.2.6,0,1-.2,1.3-.6s.4-1.1.4-2-.1-1.4-.4-1.9c-.3-.5-.7-.7-1.4-.7s-1,.2-1.3.6-.5,1.1-.5,2l.2-.2h0Z"/>
    <path class="st1" d="M210.4,25.9v-4.7c0-.8,0-1.4-.2-1.7-.2-.3-.5-.5-.9-.5s-.7.1-1,.3c-.2.2-.4.5-.6.8v5.8h-2.3v-8.7h1.8l.3,1.1h0c.3-.4.6-.7,1-1s.9-.4,1.6-.4,1,.1,1.4.3c.4.2.6.6.8,1.1.3-.5.6-.8,1-1.1.4-.3.9-.4,1.5-.4s.9,0,1.2.2c.3.1.6.3.8.6.2.3.4.7.5,1.1.1.5.2,1.1.2,1.8v5.2h-2.3v-4.9c0-.7,0-1.2-.2-1.5-.1-.3-.5-.5-1-.5s-.7.1-1,.3c-.2.2-.4.5-.5.9v5.7h-2.3s.2.2.2.2Z"/>
    <path class="st1" d="M219.5,13.8h2.3v4.2h0c.2-.3.6-.5.9-.7.4-.2.8-.2,1.3-.2,1,0,1.8.4,2.4,1.1.5.7.8,1.8.8,3.3s-.4,2.7-1.2,3.6c-.8.8-1.8,1.2-3.2,1.2s-1.4,0-2-.2c-.6-.1-1.1-.3-1.4-.4v-11.8h0ZM223.3,19c-.4,0-.8.1-1,.3-.3.2-.5.5-.6.9v3.8c.2,0,.4.2.6.2h.7c.6,0,1.1-.2,1.4-.7.3-.4.5-1.2.5-2.1,0-1.7-.5-2.5-1.5-2.5h0Z"/>
    <path class="st1" d="M228.4,14.8c0-.3.1-.6.4-.9.2-.2.6-.4,1-.4s.8.1,1.1.4c.3.2.4.5.4.9s-.1.6-.4.8c-.3.2-.6.3-1.1.3s-.8-.1-1-.3-.4-.5-.4-.8ZM228.8,17.3h2.3v8.7h-2.3v-8.7Z"/>
    <path class="st1" d="M233,17.8c.5-.2,1-.4,1.6-.5s1.3-.2,2-.2,1.1,0,1.5.2c.4.1.7.4,1,.6.2.3.4.6.5,1,0,.4.1.8.1,1.3v4.4c0,.5.1.9.3,1.3h-1.8l-.4-1.2h0c-.2.4-.6.7-1,.9-.4.3-.9.4-1.6.4s-.8,0-1.1-.2c-.3-.1-.6-.3-.8-.5s-.4-.5-.5-.8-.2-.7-.2-1,.1-1,.4-1.3c.2-.4.6-.7,1-.9.4-.2,1-.4,1.6-.5.6,0,1.3-.1,2.1,0,0-.6,0-1.1-.1-1.4-.2-.3-.6-.4-1.2-.4s-.9,0-1.4.1c-.5,0-.9.2-1.2.4l-.5-1.7h-.3ZM235.8,24.2c.5,0,.8-.1,1.1-.3.3-.2.5-.4.6-.7v-1.1h-1c-.3,0-.6,0-.9.2-.3,0-.5.2-.6.3-.2.2-.2.3-.2.6s0,.6.3.8c.2.2.5.3.8.3h-.1Z"/>
  </g>
  <g>
    <path class="st0" d="M26.3,18.3c0,2.5-2.1,4.6-4.6,4.6s-4.6-2.1-4.6-4.6,2.1-4.6,4.6-4.6,4.6,2.1,4.6,4.6Z"/>
    <path class="st6" d="M35.5,18.6c0-.6-.6-1-1.1-1s-.4,0-.6.2h0c-4.4,3.4-8.4,7.3-12,11.6-3.6-4.3-7.6-8.2-12-11.6h0c-.2-.1-.3-.2-.6-.2-.6,0-1.1.4-1.1,1v.5h0c2.8,5.4,6.1,10.4,10,14.9.6.7,1.2,1.4,1.9,2.1.4.4,1,.7,1.7.7s1.2-.3,1.7-.8c.6-.7,1.2-1.4,1.9-2.1,3.9-4.5,7.2-9.5,10-14.8h0v-.6h.2,0Z"/>
    <path class="st2" d="M27.4,36.8c.8-1.8,2.1-3.9,4.2-6s3.6-3,5.6-4h.3c.5,0,.9.3.9.8v.5h0c-.8,1.5-2.1,3.5-4,5.5-1.8,1.9-3.7,3.3-5.6,4.4-.2,0-.4.2-.7,0-.4,0-.7-.4-.7-.8v-.4h0ZM16.1,36.8c-.8-1.8-2.1-3.9-4.2-6-1.7-1.7-3.6-3-5.6-4h-.3c-.5,0-.9.3-.9.8v.5h0c.8,1.5,2.1,3.5,4,5.5,1.8,1.9,3.7,3.3,5.6,4.4.2,0,.4.2.7,0,.4,0,.7-.4.7-.8v-.4h0Z"/>
  </g>
  <g class="st3">
    <path class="st4" d="M48,40.4c-.5,0-1-.1-1.3-.3-.4-.2-.7-.5-1-.8-.3-.3-.5-.7-.6-1.2-.1-.4-.2-.9-.2-1.4s0-.8.2-1.2c.1-.4.3-.8.5-1.2s.5-.7.8-1.1c.3-.3.6-.6,1-.9s.8-.4,1.2-.6c.4-.1.9-.2,1.4-.2.8,0,1.4.2,1.9.5.5.4.8.8.9,1.4l-1.5.9c0-.2-.1-.4-.2-.6-.1-.2-.2-.3-.4-.4s-.3-.2-.5-.2-.4,0-.5,0c-.5,0-.9.1-1.2.3-.4.2-.7.5-1,.8-.3.3-.5.7-.6,1.1-.1.4-.2.8-.2,1.2s0,.6.1.9c0,.3.2.5.4.7.2.2.3.4.6.5.2.1.5.2.8.2s.4,0,.6,0,.4-.1.6-.2c.2-.1.4-.2.6-.4s.3-.4.5-.6l1.2.8c-.2.3-.4.6-.7.9-.3.2-.6.5-1,.6s-.7.3-1.1.4c-.4,0-.7.1-1.1.1Z"/>
    <path class="st4" d="M53.7,33.9h1.5l-.3,1.4c.3-.4.7-.8,1-1,.4-.3.8-.4,1.1-.4s.1,0,.2,0c0,0,0,0,.1,0l-.3,1.5c-.5,0-.9.1-1.3.3-.4.2-.7.5-1,.8l-.8,3.9h-1.6l1.4-6.4Z"/>
    <path class="st4" d="M59.5,40.4c-.4,0-.8,0-1.1-.2-.3-.1-.6-.3-.8-.6-.2-.2-.4-.5-.5-.9-.1-.3-.2-.7-.2-1.1s.1-1,.3-1.5.5-.9.9-1.2c.4-.4.8-.6,1.3-.9.5-.2,1-.3,1.6-.3s1.2.2,1.7.5c.4.3.6.7.6,1.3,0,1.4-1.2,2.1-3.7,2.1h-.5c-.2,0-.3,0-.5,0v.2c0,.4,0,.8.3,1,.2.3.5.4.9.4s.6,0,.9-.2c.3-.2.5-.4.7-.6l1.3.4c-.2.2-.4.5-.6.7-.2.2-.5.4-.8.5s-.6.3-.9.3c-.3,0-.6.1-.9.1ZM60.7,35c-.2,0-.5,0-.7.1-.2,0-.4.2-.5.3s-.3.3-.4.5-.2.4-.3.6c.1,0,.3,0,.4,0h.4c.4,0,.7,0,1,0,.3,0,.5-.1.7-.2s.3-.2.4-.3c0-.1.1-.2.1-.4,0-.2,0-.4-.3-.5-.2-.1-.4-.2-.7-.2Z"/>
    <path class="st4" d="M66.2,40.4c-.4,0-.8,0-1.1-.2-.3-.1-.6-.3-.8-.6s-.4-.5-.5-.9c-.1-.3-.2-.7-.2-1s0-1,.3-1.5.5-.9.8-1.3.8-.7,1.3-.9,1-.3,1.6-.3,1.2.2,1.6.5c.4.3.7.7.8,1.2l-1.7.5c0-.2-.2-.4-.4-.5-.2-.1-.4-.2-.7-.2s-.5,0-.7.2c-.2.1-.5.3-.6.5-.2.2-.3.5-.4.8-.1.3-.2.6-.2.9s.1.8.3,1.1c.2.3.5.4.9.4s.5,0,.8-.2.5-.3.6-.5l1.5.5c-.3.5-.7.9-1.3,1.2-.5.3-1.2.5-1.8.5Z"/>
    <path class="st4" d="M72.8,40.4c-.4,0-.8,0-1.1-.2-.3-.1-.6-.3-.8-.6-.2-.2-.4-.5-.5-.9-.1-.3-.2-.7-.2-1.1s.1-1,.3-1.5.5-.9.9-1.2c.4-.4.8-.6,1.3-.9.5-.2,1-.3,1.6-.3s1.2.2,1.7.5c.4.3.6.7.6,1.3,0,1.4-1.2,2.1-3.7,2.1h-.5c-.2,0-.3,0-.5,0v.2c0,.4,0,.8.3,1,.2.3.5.4.9.4s.6,0,.9-.2c.3-.2.5-.4.7-.6l1.3.4c-.2.2-.4.5-.6.7-.2.2-.5.4-.8.5s-.6.3-.9.3c-.3,0-.6.1-.9.1ZM74,35c-.2,0-.5,0-.7.1-.2,0-.4.2-.5.3s-.3.3-.4.5-.2.4-.3.6c.1,0,.3,0,.4,0h.4c.4,0,.7,0,1,0,.3,0,.5-.1.7-.2s.3-.2.4-.3c0-.1.1-.2.1-.4,0-.2,0-.4-.3-.5-.2-.1-.4-.2-.7-.2Z"/>
    <path class="st4" d="M78,33.9h1.5l-.3,1.4c.3-.4.7-.8,1-1,.4-.3.8-.4,1.1-.4s.1,0,.2,0c0,0,0,0,.1,0l-.3,1.5c-.5,0-.9.1-1.3.3-.4.2-.7.5-1,.8l-.8,3.9h-1.6l1.4-6.4Z"/>
    <path class="st4" d="M83,42.7c-.3,0-.6,0-.8-.1s-.5-.2-.6-.4l.9-1.1c0,0,.2.2.3.2.1,0,.2,0,.3,0,.2,0,.4,0,.5-.2.2-.2.3-.3.3-.6l1.4-6.6h1.6l-1.4,6.4c0,.3-.2.7-.4.9-.2.3-.4.5-.6.7-.2.2-.5.4-.8.5-.3.1-.6.2-.9.2ZM85.9,31.4h1.6l-.4,1.6h-1.6l.4-1.6Z"/>
    <path class="st4" d="M88.9,40.4c-1,0-1.5-.5-1.5-1.6s0-.3,0-.4c0-.2,0-.3,0-.5l.9-4h1.6l-.8,3.6c0,.1,0,.2,0,.3,0,0,0,.2,0,.3,0,.6.2.9.7.9s.6,0,.9-.3c.3-.2.6-.5.9-.9l.8-4h1.6l-1,4.5s0,0,0,.1c0,0,0,0,0,.1,0,.2,0,.3.3.3l-.3,1.4c-.1,0-.3,0-.4,0-.1,0-.2,0-.3,0-.3,0-.5,0-.7-.2-.2-.1-.2-.3-.2-.5s0-.1,0-.2c0,0,0-.2,0-.4-.4.4-.8.8-1.3,1-.5.2-1,.3-1.5.3Z"/>
    <path class="st4" d="M95.7,33.9h1.5l-.3,1.2c.3-.4.7-.7,1.2-1,.5-.2,1-.3,1.5-.3s.5,0,.7.1c.2,0,.3.2.4.3.1.1.2.3.2.5,0,.2,0,.4,0,.6s0,.3,0,.5c0,.2,0,.4,0,.5l-.8,4h-1.6l.8-3.6c0-.1,0-.2,0-.3,0-.1,0-.2,0-.3,0-.3,0-.5-.2-.6-.1-.1-.3-.2-.5-.2s-.3,0-.5,0c-.2,0-.3.2-.5.3-.2.1-.3.3-.5.4-.1.2-.3.3-.4.5l-.8,3.7h-1.6l1.4-6.4Z"/>
    <path class="st4" d="M103.3,40.4c-.4,0-.7,0-1-.3s-.4-.5-.4-.9,0-.3,0-.5l.8-3.7h-.8l.3-1.3h.8l.4-2.1h1.6l-.4,2.1h1.3l-.3,1.3h-1.3l-.7,3.1s0,0,0,.1c0,0,0,0,0,0,0,.2,0,.3.1.3,0,0,.2,0,.3,0s.3,0,.5,0c.2,0,.3-.1.4-.2v1.3c-.2.1-.5.2-.8.3-.3,0-.7.1-1,.1Z"/>
    <path class="st4" d="M108.6,40.4c-.4,0-.8,0-1.1-.2-.3-.1-.6-.3-.8-.6-.2-.2-.4-.5-.5-.8s-.2-.7-.2-1,0-1,.3-1.5.5-.9.8-1.3.8-.7,1.3-.9,1-.3,1.6-.3.8,0,1.1.2.6.3.8.6c.2.2.4.5.5.8.1.3.2.7.2,1s0,1-.3,1.5c-.2.5-.5.9-.8,1.3-.4.4-.8.7-1.3.9-.5.2-1,.3-1.6.3ZM108.9,39c.3,0,.5,0,.7-.2s.5-.3.6-.5c.2-.2.3-.5.5-.8.1-.3.2-.6.2-.9s-.1-.8-.3-1.1-.5-.4-.9-.4-.5,0-.7.2c-.2.1-.5.3-.6.5s-.3.5-.5.8c-.1.3-.2.6-.2.9s.1.8.3,1.1.5.4.9.4Z"/>
    <path class="st4" d="M115.2,40.4c-.5,0-1,0-1.5-.3-.5-.2-.8-.4-1.1-.7l.8-1c.6.6,1.3.8,1.9.8s.6,0,.8-.2.3-.3.3-.6,0-.3-.3-.4c-.2-.1-.5-.2-.8-.3-.3,0-.6-.2-.8-.3-.2,0-.4-.2-.6-.3s-.3-.2-.3-.4c0-.1-.1-.3-.1-.5,0-.4,0-.7.2-1,.2-.3.4-.6.6-.8.3-.2.6-.4.9-.5s.7-.2,1.1-.2.9,0,1.2.2c.4.1.7.4,1,.7l-.9,1c-.3-.2-.5-.4-.8-.5-.3-.1-.5-.2-.8-.2s-.5,0-.7.2c-.2.1-.3.3-.3.6s0,.3.2.4c.2,0,.4.2.8.3.7.2,1.2.4,1.5.6.3.2.5.6.5,1s0,.7-.2,1-.3.5-.6.7-.6.4-.9.5c-.4.1-.8.2-1.2.2Z"/>
  </g>
  <g class="st3">
    <path class="st5" d="M126.3,40.4c-.5,0-.9,0-1.3-.3s-.7-.4-1-.7c-.3-.3-.5-.7-.7-1.1s-.2-.8-.2-1.3,0-.9.2-1.3.4-.7.7-1c.3-.3.6-.5,1-.7s.8-.3,1.3-.3.9,0,1.3.3c.4.2.7.4,1,.7s.5.6.6,1,.2.8.2,1.2,0,.2,0,.2,0,.1,0,.2h-5.3c0,.3,0,.6.2.9.1.3.3.5.5.7.2.2.4.3.7.4s.5.2.8.2.4,0,.6,0c.2,0,.4-.1.5-.2.2,0,.3-.2.4-.3.1-.1.2-.3.3-.4l.9.3c-.1.2-.2.5-.4.6s-.4.4-.6.5c-.2.1-.5.3-.8.3s-.6.1-.9.1ZM128.5,36.7c0-.3,0-.6-.2-.8-.1-.3-.3-.5-.5-.7s-.4-.3-.7-.4-.5-.2-.8-.2-.6,0-.8.2-.5.2-.7.4c-.2.2-.3.4-.5.7-.1.3-.2.5-.2.8h4.3Z"/>
    <path class="st5" d="M132.9,40.4c-.5,0-1,0-1.5-.2-.5-.2-.9-.4-1.3-.7l.5-.7c.4.3.7.5,1.1.6.4.1.8.2,1.2.2s.8,0,1.1-.3c.3-.2.4-.4.4-.8s0-.3-.1-.4c0-.1-.2-.2-.3-.3s-.3-.2-.6-.2-.5-.1-.8-.2c-.4,0-.7-.2-1-.3-.3,0-.5-.2-.7-.3-.2-.1-.3-.3-.4-.4,0-.2-.1-.4-.1-.6s0-.6.2-.8c.1-.2.3-.5.5-.6.2-.2.5-.3.8-.4.3,0,.6-.1,1-.1s.9,0,1.3.2c.4.2.8.4,1,.6l-.5.6c-.3-.2-.6-.4-.9-.5-.3-.1-.7-.2-1-.2s-.7,0-1,.2-.4.4-.4.8,0,.3,0,.4.1.2.3.3.3.1.5.2c.2,0,.4.1.7.2.4,0,.8.2,1.1.3s.6.2.8.4c.2.1.4.3.5.5s.2.4.2.7c0,.6-.2,1.1-.7,1.4-.5.3-1.1.5-1.8.5Z"/>
    <path class="st5" d="M143.2,40.4c-.5,0-1-.1-1.4-.4-.4-.3-.7-.6-1-1v3.9h-1.1v-9h1v1.2c.3-.4.6-.7,1-.9.4-.2.8-.4,1.3-.4s.8,0,1.2.3.7.4,1,.7c.3.3.5.7.6,1.1s.2.8.2,1.2,0,.9-.2,1.3c-.1.4-.3.8-.6,1s-.6.5-.9.7c-.4.2-.7.3-1.2.3ZM142.9,39.5c.3,0,.6,0,.9-.2.3-.1.5-.3.7-.5.2-.2.3-.5.4-.8,0-.3.1-.6.1-.9s0-.6-.2-.9c-.1-.3-.3-.5-.5-.8-.2-.2-.4-.4-.7-.5-.3-.1-.6-.2-.9-.2s-.4,0-.6.1c-.2,0-.4.2-.6.3-.2.1-.3.3-.5.5-.1.2-.2.4-.3.6v1.8c0,.2.2.4.3.6.1.2.3.3.5.5.2.1.4.2.6.3s.4.1.6.1Z"/>
    <path class="st5" d="M150.2,40.4c-.5,0-.9,0-1.3-.3-.4-.2-.7-.4-1-.7-.3-.3-.5-.7-.7-1s-.2-.8-.2-1.3,0-.9.2-1.3c.2-.4.4-.7.7-1,.3-.3.6-.5,1-.7s.8-.3,1.3-.3.9,0,1.3.3.7.4,1,.7c.3.3.5.7.7,1s.2.8.2,1.3,0,.9-.2,1.3-.4.7-.7,1c-.3.3-.6.5-1,.7-.4.2-.8.3-1.3.3ZM148.1,37.1c0,.3,0,.6.2.9.1.3.3.5.5.7s.4.4.7.5c.3.1.5.2.8.2s.6,0,.8-.2.5-.3.7-.5c.2-.2.3-.5.5-.8.1-.3.2-.6.2-.9s0-.6-.2-.9c-.1-.3-.3-.5-.5-.8-.2-.2-.4-.4-.7-.5s-.5-.2-.8-.2-.6,0-.8.2c-.3.1-.5.3-.7.5-.2.2-.3.5-.5.8-.1.3-.2.6-.2.9Z"/>
    <path class="st5" d="M156.9,40.4c-.5,0-1,0-1.5-.2-.5-.2-.9-.4-1.3-.7l.5-.7c.4.3.7.5,1.1.6.4.1.8.2,1.2.2s.8,0,1.1-.3c.3-.2.4-.4.4-.8s0-.3-.1-.4c0-.1-.2-.2-.3-.3s-.3-.2-.6-.2-.5-.1-.8-.2c-.4,0-.7-.2-1-.3-.3,0-.5-.2-.7-.3-.2-.1-.3-.3-.4-.4,0-.2-.1-.4-.1-.6s0-.6.2-.8c.1-.2.3-.5.5-.6.2-.2.5-.3.8-.4.3,0,.6-.1,1-.1s.9,0,1.3.2c.4.2.8.4,1,.6l-.5.6c-.3-.2-.6-.4-.9-.5-.3-.1-.7-.2-1-.2s-.7,0-1,.2-.4.4-.4.8,0,.3,0,.4.1.2.3.3.3.1.5.2c.2,0,.4.1.7.2.4,0,.8.2,1.1.3s.6.2.8.4c.2.1.4.3.5.5s.2.4.2.7c0,.6-.2,1.1-.7,1.4-.5.3-1.1.5-1.8.5Z"/>
    <path class="st5" d="M160.7,32.7v-1.3h1.1v1.3h-1.1ZM160.7,40.3v-6.4h1.1v6.4h-1.1Z"/>
    <path class="st5" d="M166.8,40.4c-.5,0-.9-.1-1.4-.4s-.7-.6-1-1v1.2h-1v-8.9h1.1v3.8c.3-.4.6-.7,1-1s.8-.4,1.4-.4.8,0,1.2.3c.3.2.6.4.9.7.2.3.4.7.6,1.1.1.4.2.8.2,1.2s0,.9-.2,1.3-.4.7-.6,1c-.3.3-.6.5-1,.7s-.8.3-1.2.3ZM166.5,39.5c.3,0,.6,0,.9-.2.3-.1.5-.3.7-.5.2-.2.3-.5.5-.8.1-.3.2-.6.2-.9s0-.6-.2-.9c-.1-.3-.2-.5-.4-.8-.2-.2-.4-.4-.7-.5-.3-.1-.5-.2-.8-.2s-.4,0-.6.1-.4.2-.6.3c-.2.1-.3.3-.5.5-.1.2-.2.4-.3.6v1.8c0,.2.1.4.3.6.1.2.3.3.5.4s.4.2.6.3c.2,0,.4.1.6.1Z"/>
    <path class="st5" d="M171.2,31.4h1.1v7.3c0,.2,0,.4.2.6.1.1.3.2.5.2s.2,0,.3,0c.1,0,.2,0,.3-.1l.2.9c-.2,0-.4.1-.6.2-.2,0-.5,0-.6,0-.4,0-.7-.1-1-.4-.2-.2-.4-.6-.4-1v-7.6Z"/>
    <path class="st5" d="M177.4,40.4c-.5,0-.9,0-1.3-.3s-.7-.4-1-.7c-.3-.3-.5-.7-.7-1.1-.2-.4-.2-.8-.2-1.3s0-.9.2-1.3c.2-.4.4-.7.7-1,.3-.3.6-.5,1-.7s.8-.3,1.3-.3.9,0,1.3.3c.4.2.7.4,1,.7s.5.6.6,1,.2.8.2,1.2,0,.2,0,.2,0,.1,0,.2h-5.3c0,.3,0,.6.2.9.1.3.3.5.5.7.2.2.4.3.7.4s.5.2.8.2.4,0,.6,0c.2,0,.4-.1.5-.2.2,0,.3-.2.4-.3.1-.1.2-.3.3-.4l.9.3c-.1.2-.2.5-.4.6s-.4.4-.6.5c-.2.1-.5.3-.8.3s-.6.1-.9.1ZM179.6,36.7c0-.3,0-.6-.2-.8-.1-.3-.3-.5-.5-.7s-.4-.3-.7-.4-.5-.2-.8-.2-.6,0-.8.2-.5.2-.7.4c-.2.2-.3.4-.5.7-.1.3-.2.5-.2.8h4.3Z"/>
  </g>
</svg>