<?xml version="1.0" encoding="UTF-8"?>
<svg id="Capa_1" xmlns="http://www.w3.org/2000/svg" version="1.1" xmlns:xlink="http://www.w3.org/1999/xlink" viewBox="0 0 71 71">
  <!-- Generator: Adobe Illustrator 29.1.0, SVG Export Plug-In . SVG Version: 2.1.0 Build 142)  -->
  <defs>
    <style>
      .st0 {
        fill: #5c4738;
      }

      .st1 {
        fill: none;
      }

      .st2 {
        fill: #5bc500;
      }

      .st3 {
        fill: #418fe9;
      }

      .st4 {
        fill: #ffb500;
      }

      .st5 {
        clip-path: url(#clippath);
      }
    </style>
    <clipPath id="clippath">
      <rect class="st1" x="5.12" y=".95" width="60.16" height="69.11"/>
    </clipPath>
  </defs>
  <g class="st5">
    <g>
      <path class="st2" d="M7.25,62.47c-.34,0-.64-.06-.9-.2-.26-.14-.49-.31-.67-.54-.19-.23-.31-.49-.41-.78-.09-.29-.14-.59-.14-.9,0-.26.04-.53.11-.79.08-.26.19-.53.33-.78.14-.25.31-.48.52-.69.2-.21.43-.4.68-.57.25-.16.53-.29.82-.38s.6-.14.93-.14c.52,0,.93.11,1.26.35.33.23.54.53.65.9l-1.17.7c-.03-.15-.08-.28-.14-.38-.06-.1-.15-.18-.25-.24-.1-.06-.2-.1-.31-.13s-.23-.04-.33-.04c-.28,0-.53.06-.74.2-.21.13-.4.3-.55.5s-.26.43-.35.68c-.08.25-.13.49-.13.72,0,.19.03.35.06.52.05.16.11.3.2.43.09.13.2.23.34.29.14.08.29.11.45.11.11,0,.23-.01.35-.05.13-.03.24-.08.36-.14.13-.06.24-.14.35-.24.11-.1.2-.23.29-.36l.94.64c-.13.21-.29.4-.49.57-.2.16-.41.3-.64.41-.24.11-.48.2-.73.25-.25.06-.49.09-.72.09l.03-.03Z"/>
      <path class="st2" d="M10.99,58.19h1.18l-.19.85c.2-.29.43-.5.68-.67.25-.16.49-.24.74-.24h.19l-.24,1.14c-.29,0-.57.05-.82.15-.25.1-.46.24-.62.44l-.54,2.54h-1.28l.9-4.22h-.01Z"/>
      <path class="st2" d="M14.97,62.5c-.28,0-.52-.05-.74-.14-.21-.09-.4-.21-.55-.36s-.26-.34-.35-.57c-.08-.21-.13-.46-.13-.73,0-.35.08-.69.21-1.01s.33-.59.58-.83c.25-.24.54-.43.87-.55.33-.14.68-.2,1.07-.2.49,0,.87.1,1.14.31.28.21.41.5.41.89,0,.46-.21.8-.63,1.04-.41.24-1.04.35-1.88.35h-.44c0,.29.05.5.15.64.1.15.28.21.52.21.19,0,.38-.05.54-.14s.3-.21.4-.38l1.02.33c-.11.16-.25.31-.41.45s-.34.25-.53.35c-.19.1-.39.18-.6.23-.21.05-.43.08-.64.08h0ZM15.72,59.05c-.24,0-.45.09-.63.25-.18.16-.31.38-.4.64h.29c.48,0,.8-.04.99-.13.19-.08.28-.2.28-.36,0-.13-.05-.21-.15-.29-.1-.08-.23-.1-.38-.1h0Z"/>
      <path class="st2" d="M19.45,62.5c-.29,0-.55-.05-.77-.14s-.4-.23-.55-.39c-.15-.16-.25-.35-.33-.57-.08-.21-.11-.44-.11-.68,0-.33.06-.64.2-.95.13-.31.31-.59.55-.84.24-.24.52-.44.84-.59.33-.15.69-.23,1.09-.23.48,0,.84.1,1.12.31.28.2.45.48.54.8l-1.33.38c-.1-.26-.29-.4-.58-.4-.14,0-.28.04-.41.1-.14.08-.25.16-.35.29s-.19.26-.25.43-.09.35-.09.54c0,.25.06.45.18.6s.28.23.46.23c.14,0,.28-.04.41-.11.14-.08.25-.18.34-.3l1.17.39c-.23.33-.52.59-.88.8-.36.21-.78.31-1.26.31h0Z"/>
      <path class="st2" d="M23.83,62.5c-.28,0-.52-.05-.74-.14-.21-.09-.4-.21-.55-.36s-.26-.34-.35-.57c-.08-.21-.13-.46-.13-.73,0-.35.08-.69.21-1.01.14-.31.33-.59.58-.83.25-.24.54-.43.87-.55.33-.14.68-.2,1.07-.2.49,0,.87.1,1.14.31.28.21.41.5.41.89,0,.46-.21.8-.63,1.04-.41.24-1.04.35-1.88.35h-.44c0,.29.05.5.15.64.1.15.28.21.52.21.19,0,.38-.05.54-.14s.3-.21.4-.38l1.02.33c-.11.16-.25.31-.41.45-.16.14-.34.25-.53.35-.19.1-.39.18-.6.23-.21.05-.43.08-.64.08h0ZM24.56,59.05c-.24,0-.45.09-.63.25-.18.16-.31.38-.4.64h.29c.48,0,.8-.04.99-.13.19-.08.28-.2.28-.36,0-.13-.05-.21-.15-.29-.1-.08-.23-.1-.38-.1h0Z"/>
      <path class="st2" d="M27.26,58.19h1.18l-.19.85c.2-.29.43-.5.68-.67.25-.16.49-.24.74-.24h.19l-.24,1.14c-.29,0-.57.05-.82.15-.25.1-.46.24-.62.44l-.54,2.54h-1.28l.9-4.22h-.01Z"/>
      <path class="st2" d="M30.69,64.05c-.2,0-.39-.04-.57-.1-.18-.06-.31-.16-.44-.3l.73-.88s.09.1.15.13.13.04.2.04c.11,0,.2-.04.3-.11.09-.08.15-.19.18-.33l.9-4.3h1.28l-.88,4.2c-.05.24-.14.46-.25.67-.11.2-.26.38-.43.53-.16.15-.35.25-.55.34-.2.08-.41.13-.63.13ZM32.5,56.55h1.28l-.25,1.17h-1.28l.25-1.17Z"/>
      <path class="st2" d="M34.61,62.5c-.33,0-.58-.09-.74-.25-.16-.18-.25-.43-.25-.75,0-.18.03-.36.08-.59l.58-2.7h1.28l-.52,2.43c-.03.14-.04.24-.04.31,0,.33.14.48.4.48.15,0,.3-.05.46-.14.16-.09.33-.25.49-.48l.55-2.6h1.28l-.59,2.78c-.01.08-.03.13-.03.16,0,.13.08.19.21.19l-.24,1.08c-.11.03-.23.05-.31.05h-.24c-.2,0-.36-.04-.5-.13-.13-.08-.19-.21-.19-.39v-.11s.01-.1.03-.18c-.24.28-.52.48-.8.62-.29.13-.62.2-.94.2l.03.03Z"/>
      <path class="st2" d="M39.19,58.19h1.16l-.15.7c.2-.25.44-.44.74-.58.29-.14.62-.2.97-.2.19,0,.34.03.46.08.13.05.21.13.29.21.08.09.13.19.15.31.03.11.05.24.05.36,0,.11,0,.21-.03.31-.01.1-.03.21-.05.31l-.57,2.7h-1.28l.5-2.37c.03-.11.04-.21.04-.33,0-.16-.04-.29-.1-.36-.08-.08-.16-.11-.28-.11-.15,0-.33.08-.53.21-.19.14-.35.31-.46.54l-.52,2.43h-1.28l.9-4.22h-.03Z"/>
      <path class="st2" d="M44.39,62.5c-.28,0-.5-.06-.68-.18-.18-.13-.26-.33-.26-.62,0-.11,0-.23.04-.33l.46-2.2h-.5l.21-.97h.5l.29-1.34h1.28l-.29,1.34h.82l-.21.97h-.82l-.36,1.76v.14c0,.09.03.15.08.2.05.04.11.06.2.06s.18-.01.29-.05c.11-.04.2-.06.3-.1v1.02c-.19.09-.4.16-.64.21-.23.06-.45.09-.68.09h-.03Z"/>
      <path class="st2" d="M47.97,62.5c-.29,0-.55-.05-.77-.14-.21-.09-.4-.23-.54-.38-.15-.16-.25-.35-.33-.55-.08-.21-.11-.44-.11-.68,0-.33.06-.65.19-.97.13-.31.31-.59.54-.84.24-.25.52-.44.84-.59.33-.15.69-.23,1.09-.23.29,0,.54.05.77.14.21.09.4.23.55.38.15.16.25.35.33.55.08.21.11.44.11.68,0,.33-.06.65-.19.97-.13.31-.31.59-.54.84-.24.24-.52.44-.84.59-.33.15-.69.23-1.09.23h-.01ZM48.2,61.41c.15,0,.29-.04.41-.1.14-.08.25-.16.35-.29.1-.13.19-.28.25-.44.06-.16.09-.35.09-.54,0-.25-.06-.45-.18-.6s-.28-.23-.46-.23c-.15,0-.29.04-.41.1-.14.08-.25.16-.35.29-.1.13-.19.28-.25.44-.06.16-.09.35-.09.54,0,.25.06.45.18.6.11.15.28.23.46.23Z"/>
      <path class="st2" d="M52.38,62.5c-.34,0-.67-.06-.97-.18-.31-.11-.55-.28-.74-.5l.62-.79c.2.18.41.31.63.41.21.1.43.15.64.15.18,0,.3-.04.39-.11s.13-.18.13-.29c0-.09-.05-.16-.14-.23s-.24-.13-.46-.2c-.21-.08-.41-.14-.57-.2-.16-.06-.29-.14-.39-.21-.1-.08-.18-.16-.23-.25-.05-.09-.08-.2-.08-.33,0-.24.05-.45.15-.65.1-.2.25-.38.43-.52.18-.15.38-.26.62-.34.24-.09.49-.13.75-.13.3,0,.58.04.82.13.24.09.46.24.67.46l-.65.77c-.2-.16-.38-.29-.54-.36-.16-.08-.33-.11-.48-.11s-.26.04-.36.1c-.1.08-.15.18-.15.31,0,.09.05.16.14.23.09.05.24.11.45.18.46.14.79.28.99.44.2.15.3.36.3.64,0,.24-.05.45-.15.65-.1.2-.23.36-.4.52-.18.14-.38.25-.63.33-.24.08-.52.11-.8.11l.03-.03Z"/>
      <path class="st0" d="M12.23,37.23c0,.18-.03.34-.06.52-.04.18-.11.33-.21.48-.1.14-.23.26-.39.38s-.35.19-.58.24v.06c.2.04.39.09.57.16.18.08.34.19.46.33.14.14.24.3.31.5.08.2.11.44.11.7,0,.35-.08.67-.23.93s-.35.48-.62.64c-.25.16-.54.29-.87.36-.33.08-.65.11-1.01.11h-.43c-.18,0-.36,0-.57-.01-.2,0-.4-.03-.62-.05-.21-.03-.4-.05-.57-.09v-6.85c.13-.03.26-.04.43-.06.16-.03.34-.04.52-.05.19-.01.38-.03.57-.03h.58c.33,0,.64.03.94.08.3.05.58.14.83.26.24.13.44.3.58.53.15.23.21.52.21.85h.03ZM9.31,38.53h.33c.13,0,.23-.01.3-.03.25-.08.46-.2.65-.35.18-.16.28-.36.28-.62,0-.18-.04-.31-.1-.43-.06-.11-.15-.2-.26-.26-.11-.06-.24-.11-.38-.14-.14-.03-.29-.04-.44-.04h-.48c-.15,0-.26.01-.34.03v1.83h.44ZM9.76,41.52c.16,0,.33-.03.48-.06.15-.04.29-.1.41-.18.11-.09.21-.19.29-.31s.11-.28.11-.44c0-.21-.04-.39-.13-.52-.09-.13-.2-.23-.34-.29-.14-.06-.29-.11-.46-.14-.18-.03-.34-.03-.52-.03h-.73v1.9s.09.03.16.03.15,0,.24.01h.5l-.03.03Z"/>
      <path class="st0" d="M13.34,37.89c.26-.11.58-.21.94-.29s.74-.1,1.14-.1c.34,0,.63.04.87.13.23.09.41.2.55.35.14.15.23.34.29.54.05.21.09.45.09.72,0,.29,0,.58-.03.88-.03.29-.04.58-.04.87s0,.57.03.83c.03.26.08.52.15.75h-1.06l-.21-.69h-.05c-.14.2-.31.38-.55.53-.24.15-.54.23-.9.23-.23,0-.44-.04-.63-.1-.19-.08-.34-.16-.48-.3-.14-.13-.24-.28-.3-.45-.08-.18-.11-.38-.11-.59,0-.3.06-.57.2-.77.14-.21.33-.38.59-.5.25-.13.57-.21.92-.26.35-.05.75-.06,1.18-.05.05-.36.03-.64-.08-.8-.1-.16-.33-.24-.67-.24-.26,0-.53.03-.82.08-.29.05-.53.13-.7.21l-.3-.97h-.03ZM14.97,41.58c.26,0,.46-.06.62-.18s.26-.24.34-.38v-.64c-.2-.03-.4-.03-.59,0-.19.01-.35.04-.5.09-.15.05-.26.11-.35.2-.09.09-.13.2-.13.33,0,.19.05.33.16.43.11.1.26.15.45.15Z"/>
      <path class="st0" d="M21.22,42.56v-2.81c0-.4-.06-.69-.18-.88-.11-.18-.31-.26-.59-.26-.24,0-.45.08-.62.21-.16.14-.29.31-.36.53v3.22h-1.29v-4.96h1.02l.15.65h.04c.15-.21.35-.4.6-.55.25-.16.58-.24.97-.24.24,0,.46.04.65.1.19.06.35.18.49.33.14.15.23.36.3.62.06.26.1.58.1.97v3.09h-1.29.01Z"/>
      <path class="st0" d="M27.04,42.26c-.2.15-.44.25-.72.33-.28.08-.57.11-.87.11-.4,0-.73-.06-1.01-.19-.28-.13-.5-.3-.67-.53-.18-.23-.3-.5-.38-.83-.08-.33-.11-.68-.11-1.07,0-.84.19-1.48.57-1.94.38-.45.93-.68,1.65-.68.36,0,.65.03.88.09.23.06.43.14.6.23l-.3,1.06c-.15-.08-.3-.13-.45-.16-.15-.04-.31-.06-.52-.06-.35,0-.63.11-.82.35-.19.24-.28.62-.28,1.13,0,.21.03.4.08.59.05.18.11.34.21.46.09.14.21.24.36.31.15.08.33.11.52.11.21,0,.4-.03.55-.09.15-.05.29-.13.4-.2l.3.98h-.01Z"/>
      <path class="st0" d="M27.36,40.09c0-.84.2-1.48.62-1.94.41-.45.98-.68,1.72-.68.4,0,.74.06,1.03.19.29.13.53.3.73.53.19.23.34.5.43.83.1.33.14.68.14,1.07,0,.84-.2,1.48-.62,1.94-.4.45-.98.68-1.72.68-.4,0-.74-.06-1.03-.19-.29-.13-.54-.3-.73-.53-.2-.23-.34-.5-.44-.83-.1-.33-.14-.68-.14-1.07h.01ZM28.68,40.09c0,.21.03.41.06.6.04.19.1.35.18.49.08.14.19.25.31.33.13.08.29.11.46.11.34,0,.59-.13.75-.36.16-.24.25-.63.25-1.16,0-.45-.08-.83-.23-1.11-.15-.28-.41-.43-.78-.43-.31,0-.57.11-.74.35-.18.24-.26.63-.26,1.17h-.01Z"/>
      <path class="st0" d="M39.07,41.03h-2.14l-.53,1.53h-1.36l2.5-7h1.01l2.5,7h-1.43l-.55-1.53ZM37.28,39.94h1.48l-.52-1.55-.21-1.09h-.05l-.21,1.11-.5,1.53h.01Z"/>
      <path class="st0" d="M45.68,42.56c0,.72-.2,1.26-.59,1.6s-.94.52-1.63.52c-.48,0-.85-.04-1.13-.1-.28-.06-.48-.14-.62-.21l.26-1.02c.15.06.33.11.53.18s.45.09.75.09c.45,0,.75-.1.92-.29.16-.2.24-.46.24-.82v-.31h-.04c-.23.31-.64.46-1.23.46-.64,0-1.12-.2-1.43-.59-.31-.4-.48-1.02-.48-1.87s.21-1.56.64-2.01c.43-.45,1.04-.69,1.85-.69.43,0,.8.03,1.13.09.34.06.6.13.82.21v4.79h.01ZM43.5,41.61c.25,0,.44-.05.58-.16s.24-.28.31-.5v-2.24c-.2-.09-.46-.13-.77-.13-.33,0-.59.13-.78.38s-.28.64-.28,1.18c0,.48.08.85.24,1.11.16.25.39.38.69.38h0Z"/>
      <path class="st0" d="M49.44,38.8c-.2-.08-.39-.11-.55-.11-.23,0-.43.06-.58.19-.15.13-.26.28-.31.48v3.2h-1.29v-4.96h1.01l.15.65h.04c.11-.24.26-.43.45-.57.19-.14.41-.2.68-.2.18,0,.36.04.59.11l-.16,1.21h-.01Z"/>
      <path class="st0" d="M50.13,37.89c.26-.11.58-.21.94-.29s.74-.1,1.14-.1c.34,0,.63.04.87.13.23.09.41.2.55.35.14.15.23.34.29.54.05.21.09.45.09.72,0,.29,0,.58-.03.88-.03.29-.04.58-.04.87s0,.57.03.83.08.52.15.75h-1.06l-.21-.69h-.05c-.14.2-.31.38-.55.53-.24.15-.54.23-.9.23-.23,0-.44-.04-.63-.1-.19-.08-.34-.16-.48-.3-.14-.13-.24-.28-.3-.45-.08-.18-.11-.38-.11-.59,0-.3.06-.57.2-.77.14-.21.33-.38.59-.5.25-.13.57-.21.92-.26.35-.05.75-.06,1.18-.05.05-.36.03-.64-.08-.8-.1-.16-.33-.24-.67-.24-.26,0-.53.03-.82.08-.29.05-.53.13-.7.21l-.3-.97h-.03ZM51.77,41.58c.26,0,.46-.06.62-.18s.26-.24.34-.38v-.64c-.2-.03-.4-.03-.59,0-.19.01-.35.04-.5.09-.15.05-.26.11-.35.2-.09.09-.13.2-.13.33,0,.19.05.33.16.43.11.1.26.15.45.15Z"/>
      <path class="st0" d="M57.71,38.8c-.2-.08-.39-.11-.55-.11-.23,0-.43.06-.58.19s-.26.28-.31.48v3.2h-1.29v-4.96h1.01l.15.65h.04c.11-.24.26-.43.45-.57.19-.14.41-.2.68-.2.18,0,.36.04.59.11l-.16,1.21h-.01Z"/>
      <path class="st0" d="M58.3,36.2c0-.19.08-.35.21-.49.14-.14.34-.2.59-.2s.45.06.62.2c.15.14.24.3.24.49s-.08.35-.24.48c-.15.13-.36.19-.62.19s-.45-.06-.59-.19c-.14-.13-.21-.29-.21-.48ZM58.49,37.6h1.29v4.96h-1.29v-4.96Z"/>
      <path class="st0" d="M60.61,40.09c0-.84.2-1.48.62-1.94.41-.45.98-.68,1.72-.68.4,0,.74.06,1.03.19.29.13.53.3.73.53.19.23.34.5.43.83.1.33.14.68.14,1.07,0,.84-.2,1.48-.62,1.94-.4.45-.98.68-1.72.68-.4,0-.74-.06-1.03-.19-.29-.13-.54-.3-.73-.53-.2-.23-.34-.5-.44-.83-.1-.33-.14-.68-.14-1.07h.01ZM61.94,40.09c0,.21.03.41.06.6.04.19.1.35.18.49s.19.25.31.33c.13.08.29.11.46.11.34,0,.59-.13.75-.36.16-.24.25-.63.25-1.16,0-.45-.08-.83-.23-1.11-.15-.28-.41-.43-.78-.43-.31,0-.57.11-.74.35-.18.24-.26.63-.26,1.17h-.01Z"/>
      <path class="st0" d="M15.29,50.03v.83c0,.28.04.59.09.92h-.92l-.18-.64h-.04c-.14.23-.33.41-.57.57s-.54.21-.88.21c-.63,0-1.11-.2-1.45-.62-.34-.41-.52-1.06-.52-1.92s.19-1.51.58-1.97c.39-.46.94-.7,1.68-.7.2,0,.38,0,.5.04.14.03.26.06.4.11v-2.01h1.29v5.2h-.01ZM13.09,50.83c.25,0,.45-.06.59-.19.15-.13.25-.3.3-.53v-2.1c-.09-.08-.2-.13-.3-.16-.11-.04-.26-.05-.44-.05-.36,0-.64.13-.82.36-.18.24-.28.67-.28,1.26,0,.43.08.77.23,1.02.15.26.39.39.7.39h.01Z"/>
      <path class="st0" d="M20.28,51.34c-.2.16-.46.29-.8.4-.34.11-.7.16-1.09.16-.8,0-1.38-.24-1.76-.7-.38-.46-.55-1.11-.55-1.92,0-.88.21-1.53.63-1.96.41-.44,1.01-.65,1.76-.65.25,0,.49.04.73.1.24.06.45.18.64.33.19.15.34.35.45.62.11.26.16.58.16.97,0,.14,0,.29-.03.45-.01.16-.04.33-.08.5h-2.98c.03.41.13.73.33.94s.52.31.94.31c.28,0,.52-.04.73-.13s.38-.16.49-.25l.43.84h0ZM18.43,47.71c-.34,0-.59.1-.75.3s-.26.48-.29.8h1.85c.03-.35-.03-.63-.16-.83-.14-.19-.35-.29-.64-.29h0Z"/>
      <path class="st0" d="M28.77,51.5c-.21.15-.48.26-.8.33-.33.06-.67.1-1.01.1-.41,0-.82-.06-1.18-.19-.38-.13-.7-.34-.99-.63-.29-.29-.52-.67-.68-1.12-.16-.46-.25-1.02-.25-1.67s.1-1.26.29-1.71c.19-.46.43-.83.73-1.11.3-.28.64-.48,1.01-.6.36-.13.74-.19,1.11-.19.4,0,.73.03,1.01.08.28.05.5.11.68.19l-.26,1.16c-.15-.08-.33-.13-.54-.16-.21-.04-.46-.05-.75-.05-.55,0-.99.2-1.32.59-.34.39-.5.99-.5,1.82,0,.35.04.68.11.98.08.29.2.55.36.75.16.21.36.38.6.49s.52.18.84.18c.3,0,.55-.03.75-.09s.39-.14.54-.23l.28,1.11v-.03Z"/>
      <path class="st0" d="M29.13,49.3c0-.84.2-1.48.62-1.94.41-.45.98-.68,1.72-.68.4,0,.74.06,1.03.19.29.13.53.3.73.53.19.23.34.5.43.83.1.33.14.68.14,1.07,0,.84-.2,1.48-.62,1.94-.4.45-.98.68-1.72.68-.4,0-.74-.06-1.03-.19-.29-.13-.54-.3-.73-.53-.2-.23-.34-.5-.44-.83-.1-.33-.14-.68-.14-1.07h.01ZM30.47,49.3c0,.21.03.41.06.6.04.19.1.35.18.49.08.14.19.25.31.33.13.08.29.11.46.11.34,0,.59-.13.75-.36s.25-.63.25-1.16c0-.45-.08-.83-.23-1.11-.15-.28-.41-.43-.78-.43-.31,0-.57.11-.74.35-.18.24-.26.63-.26,1.17h-.01Z"/>
      <path class="st0" d="M35.92,50.11c0,.23.03.4.09.5.06.1.15.16.29.16.08,0,.16,0,.24-.03.08-.01.18-.04.29-.09l.14,1.02c-.1.05-.26.1-.49.16-.21.05-.44.08-.68.08-.38,0-.67-.09-.87-.26s-.3-.46-.3-.87v-5.96h1.29v5.28Z"/>
      <path class="st0" d="M37.2,49.3c0-.84.2-1.48.62-1.94.41-.45.98-.68,1.72-.68.4,0,.74.06,1.03.19.29.13.53.3.73.53.19.23.34.5.43.83.1.33.14.68.14,1.07,0,.84-.2,1.48-.62,1.94-.4.45-.98.68-1.72.68-.4,0-.74-.06-1.03-.19-.29-.13-.54-.3-.73-.53-.2-.23-.34-.5-.44-.83-.1-.33-.14-.68-.14-1.07h.01ZM38.53,49.3c0,.21.03.41.06.6.04.19.1.35.18.49.08.14.19.25.31.33.13.08.29.11.46.11.34,0,.59-.13.75-.36s.25-.63.25-1.16c0-.45-.08-.83-.23-1.11-.15-.28-.41-.43-.78-.43-.31,0-.57.11-.74.35-.18.24-.26.63-.26,1.17h-.01Z"/>
      <path class="st0" d="M45.5,51.77v-2.7c0-.45-.04-.78-.13-.97-.09-.19-.26-.29-.54-.29-.23,0-.4.06-.54.19-.14.13-.24.28-.31.48v3.3h-1.29v-4.96h1.01l.15.65h.04c.15-.21.35-.4.58-.55.24-.16.54-.24.9-.24.31,0,.58.06.78.19.2.13.36.35.48.65.15-.26.35-.46.59-.62.24-.15.53-.23.87-.23.28,0,.52.04.7.1.2.06.35.18.48.34.13.16.21.38.28.65s.09.62.09,1.03v2.98h-1.29v-2.79c0-.39-.04-.68-.13-.88s-.26-.29-.55-.29c-.23,0-.41.06-.55.19-.14.13-.24.3-.3.52v3.25h-1.29Z"/>
      <path class="st0" d="M50.58,44.82h1.29v2.39h.04c.14-.16.31-.29.54-.38.21-.09.46-.14.73-.14.59,0,1.06.2,1.37.62.31.4.48,1.03.48,1.86,0,.89-.23,1.57-.67,2.04-.44.46-1.04.69-1.81.69-.43,0-.82-.04-1.16-.1-.35-.08-.62-.15-.79-.24v-6.74h-.03ZM52.8,47.79c-.24,0-.43.06-.58.19s-.26.3-.34.53v2.16c.1.05.23.09.34.11.13.03.25.03.39.03.35,0,.62-.13.8-.38.18-.25.28-.67.28-1.22,0-.94-.29-1.42-.88-1.42h-.01Z"/>
      <path class="st0" d="M55.65,45.41c0-.19.08-.35.21-.49s.34-.2.59-.2.45.06.62.2c.15.14.24.3.24.49s-.08.35-.24.48c-.15.13-.36.19-.62.19s-.45-.06-.59-.19c-.14-.13-.21-.29-.21-.48ZM55.84,46.81h1.29v4.96h-1.29v-4.96Z"/>
      <path class="st0" d="M58.19,47.1c.26-.11.58-.21.94-.29s.74-.1,1.14-.1c.34,0,.63.04.87.13.23.09.41.2.55.35s.23.34.29.54c.05.21.09.45.09.72,0,.29,0,.58-.03.88-.03.29-.04.58-.04.87s0,.57.03.83c.03.26.08.52.15.75h-1.06l-.21-.69h-.05c-.14.2-.31.38-.55.53-.24.15-.54.23-.9.23-.23,0-.44-.04-.63-.1-.19-.08-.34-.16-.48-.3-.14-.13-.24-.28-.3-.45-.08-.18-.11-.38-.11-.59,0-.3.06-.57.2-.77.14-.21.33-.38.59-.5.25-.13.57-.21.92-.26.35-.05.75-.06,1.18-.05.05-.36.03-.64-.08-.8-.1-.16-.33-.24-.67-.24-.26,0-.53.03-.82.08s-.53.13-.7.21l-.3-.97h-.03ZM59.82,50.79c.26,0,.46-.06.62-.18s.26-.24.34-.38v-.64c-.2-.03-.4-.03-.59,0-.19.01-.35.04-.5.09-.15.05-.26.11-.35.2s-.13.2-.13.33c0,.19.05.33.16.43.11.1.26.15.45.15Z"/>
      <path class="st4" d="M42.22,6.74c0,3.19-2.6,5.77-5.79,5.77s-5.77-2.6-5.77-5.79c.01-3.19,2.6-5.77,5.79-5.77s5.77,2.6,5.77,5.79Z"/>
      <path class="st2" d="M53.76,7.14c-.05-.74-.69-1.29-1.43-1.24-.26.03-.5.11-.7.26-.01,0-.08.06-.08.06-5.54,4.35-10.62,9.26-15.12,14.64-4.51-5.39-9.59-10.3-15.13-14.65-.03-.01-.04-.04-.06-.05-.2-.15-.44-.24-.7-.26-.74-.05-1.38.5-1.43,1.24-.01.23.03.45.11.65l.06.13c3.51,6.71,7.75,13.01,12.64,18.74.78.92,1.57,1.81,2.39,2.7.48.53,1.23.93,2.12.93.8,0,1.57-.33,2.17-.98.8-.87,1.58-1.76,2.34-2.65,4.89-5.74,9.14-12.03,12.64-18.74l.06-.13c.09-.2.14-.41.11-.65Z"/>
      <path class="st3" d="M43.6,30.18c1.06-2.26,2.71-4.99,5.35-7.6,2.11-2.1,4.51-3.78,7.07-5.03.01,0,.04-.01.05-.03.11-.05.24-.08.36-.09.62-.04,1.14.41,1.19,1.03.01.21-.03.4-.11.58,0,.01-.03.04-.03.05-1.06,1.92-2.71,4.47-5.09,6.9-2.29,2.35-4.64,4.11-7.14,5.53-.25.15-.48.25-.88.18-.48-.09-.84-.5-.88-1.01,0-.11-.03-.28.1-.54v.03ZM29.27,30.18c-1.06-2.26-2.71-4.99-5.35-7.6-2.11-2.1-4.51-3.78-7.07-5.03-.01,0-.04-.01-.05-.03-.11-.05-.24-.08-.36-.09-.62-.04-1.14.41-1.19,1.03-.01.21.03.4.11.58,0,.01.03.04.03.05,1.06,1.92,2.71,4.47,5.09,6.9,2.29,2.35,4.64,4.11,7.14,5.53.25.15.48.25.88.18.48-.09.84-.5.88-1.01,0-.11.03-.28-.1-.54v.03Z"/>
      <path class="st4" d="M34.51,68.66c-.26,0-.52-.05-.74-.15-.23-.1-.41-.23-.58-.4-.16-.16-.29-.36-.38-.59-.09-.23-.14-.46-.14-.72s.05-.49.14-.72c.09-.23.21-.43.38-.59.16-.16.35-.3.58-.4.23-.1.48-.15.74-.15s.52.05.74.15c.23.1.41.24.57.4.15.16.28.36.36.58.09.23.13.45.13.69v.24h-2.98c.01.18.05.34.13.49.06.15.16.28.26.38.11.1.24.19.38.25.14.06.29.09.44.09.11,0,.21-.01.33-.05.1-.03.2-.08.29-.13s.18-.11.24-.19c.08-.08.13-.15.16-.25l.53.14c-.06.14-.14.25-.24.36s-.23.2-.35.29c-.14.08-.29.14-.45.19-.16.05-.34.06-.52.06v.03ZM35.74,66.56c-.01-.16-.05-.33-.13-.46-.08-.14-.16-.26-.26-.36-.11-.1-.23-.18-.38-.24-.14-.06-.29-.09-.45-.09s-.31.03-.45.09c-.14.06-.26.14-.38.24-.11.1-.19.23-.26.36-.06.14-.1.3-.13.46h2.44Z"/>
      <path class="st4" d="M38.24,68.66c-.29,0-.58-.05-.85-.14-.28-.09-.52-.21-.72-.39l.26-.4c.21.16.43.28.63.36.21.08.43.13.67.13.26,0,.46-.05.62-.15.15-.1.23-.25.23-.44,0-.09-.03-.16-.06-.23-.04-.06-.1-.11-.19-.16-.09-.05-.19-.09-.31-.13s-.28-.08-.45-.11c-.21-.05-.4-.11-.55-.16-.15-.05-.29-.11-.39-.18-.1-.06-.18-.15-.21-.25-.05-.1-.06-.21-.06-.35,0-.18.04-.34.1-.48.08-.14.16-.25.29-.35.13-.09.26-.16.44-.21.16-.05.35-.08.54-.08.26,0,.53.04.75.13.24.09.43.2.59.34l-.28.36c-.15-.14-.33-.23-.5-.3-.19-.06-.38-.1-.58-.1-.21,0-.4.05-.57.14-.15.09-.23.24-.23.45,0,.09.01.15.05.2.03.05.08.1.15.14.08.04.15.08.26.11.11.04.24.06.39.1.24.05.44.11.62.16.18.06.33.13.44.2.11.08.2.16.26.28.06.1.09.24.09.39,0,.34-.13.6-.39.79-.25.2-.6.29-1.03.29v.04Z"/>
      <path class="st4" d="M44.05,68.66c-.3,0-.57-.08-.79-.21-.23-.15-.4-.33-.54-.55v2.17h-.6v-5.05h.54v.68c.14-.21.33-.4.55-.53.23-.14.48-.2.75-.2.25,0,.48.05.68.15.2.1.39.24.54.41.15.18.26.36.35.59s.13.45.13.7-.04.5-.11.73c-.08.23-.19.43-.33.59s-.31.3-.5.4c-.2.1-.41.15-.65.15v-.04ZM43.86,68.14c.18,0,.34-.04.49-.11.14-.08.26-.18.38-.3.1-.13.18-.26.24-.43.05-.16.09-.33.09-.49,0-.18-.04-.35-.1-.52-.06-.16-.15-.3-.26-.43-.11-.13-.24-.21-.39-.29-.15-.08-.31-.1-.49-.1-.11,0-.23.03-.34.06s-.23.1-.33.18c-.1.08-.19.15-.26.25-.08.1-.13.2-.15.31v1.02c.05.11.11.23.19.33.08.1.16.19.26.26.1.08.21.14.33.18.11.04.24.06.35.06h0Z"/>
      <path class="st4" d="M47.96,68.66c-.26,0-.52-.05-.74-.15-.23-.1-.41-.24-.57-.4-.16-.16-.28-.36-.36-.59-.09-.23-.13-.46-.13-.7s.05-.49.14-.72.21-.43.38-.59c.16-.16.35-.3.57-.4.23-.1.46-.15.73-.15s.52.05.73.15c.23.1.41.24.58.4.16.16.28.36.38.59.09.23.14.46.14.72s-.04.48-.13.7-.21.43-.38.59c-.16.16-.35.3-.58.4-.23.1-.46.15-.74.15h-.01ZM46.78,66.81c0,.19.03.36.09.53.06.16.15.3.25.41.11.11.24.21.38.28s.3.1.46.1.31-.04.46-.1c.14-.06.28-.16.38-.29.11-.13.2-.26.25-.43.06-.16.09-.34.09-.53s-.03-.35-.09-.52c-.06-.16-.15-.3-.25-.43-.11-.13-.24-.21-.38-.29-.14-.06-.3-.1-.46-.1s-.31.04-.46.1c-.14.08-.26.16-.38.29-.11.13-.19.26-.25.43-.06.16-.09.34-.09.53h0Z"/>
      <path class="st4" d="M51.77,68.66c-.29,0-.58-.05-.85-.14-.28-.09-.52-.21-.72-.39l.26-.4c.21.16.43.28.63.36.21.08.43.13.67.13.26,0,.46-.05.62-.15.15-.1.23-.25.23-.44,0-.09-.03-.16-.06-.23s-.1-.11-.19-.16c-.09-.05-.19-.09-.31-.13-.13-.04-.28-.08-.45-.11-.21-.05-.4-.11-.55-.16-.15-.05-.29-.11-.39-.18-.1-.06-.18-.15-.21-.25-.05-.1-.06-.21-.06-.35,0-.18.04-.34.1-.48.08-.14.16-.25.29-.35.13-.09.26-.16.44-.21.16-.05.35-.08.54-.08.26,0,.53.04.75.13.24.09.43.2.59.34l-.28.36c-.15-.14-.33-.23-.5-.3-.19-.06-.38-.1-.58-.1-.21,0-.4.05-.57.14-.15.09-.23.24-.23.45,0,.09.01.15.05.2.03.05.08.1.15.14.08.04.15.08.26.11.11.04.24.06.39.1.24.05.44.11.62.16.18.06.33.13.44.2.11.08.2.16.26.28.06.1.09.24.09.39,0,.34-.13.6-.39.79-.25.2-.6.29-1.03.29v.04Z"/>
      <path class="st4" d="M53.9,64.34v-.75h.6v.75h-.6ZM53.9,68.6v-3.58h.6v3.58h-.6Z"/>
      <path class="st4" d="M57.32,68.66c-.28,0-.53-.06-.77-.2-.23-.14-.41-.31-.54-.54v.68h-.54v-5.01h.6v2.14c.15-.24.34-.43.55-.57.21-.14.48-.21.77-.21.25,0,.46.05.67.16.2.1.36.24.5.41s.25.38.33.6c.08.23.11.46.11.69,0,.25-.04.49-.13.72-.09.23-.2.41-.35.59-.15.16-.33.3-.54.4-.21.1-.43.15-.67.15h0ZM57.17,68.14c.18,0,.34-.04.49-.11.15-.08.28-.18.39-.29.11-.13.19-.26.25-.43s.09-.33.09-.5-.03-.34-.09-.5-.14-.3-.24-.43c-.1-.13-.23-.23-.38-.3-.14-.08-.3-.11-.48-.11-.13,0-.25.03-.36.06-.11.05-.23.1-.31.18-.1.08-.19.16-.26.26-.08.1-.14.21-.2.33v1.04c.03.11.08.21.15.31.08.1.16.18.26.25.1.08.21.13.33.16.11.04.23.06.34.06h.03Z"/>
      <path class="st4" d="M59.77,63.58h.6v4.08c0,.14.04.24.1.31.08.08.18.11.3.11.05,0,.11,0,.18-.03.06-.01.14-.04.19-.06l.1.49c-.1.04-.21.08-.35.1s-.26.04-.36.04c-.24,0-.41-.06-.55-.2-.14-.14-.2-.31-.2-.55v-4.31h0Z"/>
      <path class="st4" d="M63.3,68.66c-.26,0-.52-.05-.74-.15-.23-.1-.41-.23-.58-.4-.16-.16-.29-.36-.38-.59s-.14-.46-.14-.72.05-.49.14-.72.21-.43.38-.59c.16-.16.35-.3.58-.4.23-.1.48-.15.74-.15s.52.05.74.15c.23.1.41.24.57.4.15.16.28.36.36.58.09.23.13.45.13.69v.24h-2.98c.01.18.05.34.13.49.06.15.16.28.26.38.11.1.24.19.38.25s.29.09.44.09c.11,0,.21-.01.33-.05.1-.03.2-.08.29-.13s.18-.11.24-.19c.08-.08.13-.15.16-.25l.53.14c-.06.14-.14.25-.24.36-.1.11-.23.2-.35.29-.14.08-.29.14-.45.19-.16.05-.34.06-.52.06v.03ZM64.53,66.56c-.01-.16-.05-.33-.13-.46-.08-.14-.16-.26-.26-.36-.11-.1-.23-.18-.38-.24-.14-.06-.29-.09-.45-.09s-.31.03-.45.09-.26.14-.38.24c-.11.1-.19.23-.26.36-.06.14-.1.3-.13.46h2.44Z"/>
      <path class="st2" d="M30.77,65.8H5.57v.38h25.19v-.38Z"/>
    </g>
  </g>
</svg>